HIERARCHY
ROOT hip
{
	OFFSET 0.000000 0.000000 0.000000
	CHANNELS 6 Xposition Yposition Zposition Xrotation Zrotation Yrotation 
	JOINT abdomen
	{
		OFFSET 0.000000 3.422050 0.000000
		CHANNELS 3 Xrotation Zrotation Yrotation 
		JOINT chest
		{
			OFFSET 0.000000 8.486693 -0.684411
			CHANNELS 3 Xrotation Zrotation Yrotation 
			JOINT neck
			{
				OFFSET 0.000000 10.266162 -0.273764
				CHANNELS 3 Xrotation Zrotation Yrotation 
				JOINT head
				{
					OFFSET 0.000000 3.148285 0.000000
					CHANNELS 3 Xrotation Zrotation Yrotation 
					End Site
					{
						OFFSET 0.000000 3.148289 0.000000
					}
				}
			}
			JOINT lCollar
			{
				OFFSET 3.422053 6.707223 -0.821293
				CHANNELS 3 Yrotation Zrotation Xrotation 
				JOINT lShldr
				{
					OFFSET 3.285171 0.000000 0.000000
					CHANNELS 3 Zrotation Yrotation Xrotation 
					JOINT lForeArm
					{
						OFFSET 10.129278 0.000000 0.000000
						CHANNELS 3 Yrotation Zrotation Xrotation 
						JOINT lHand
						{
							OFFSET 8.486692 0.000000 0.000000
							CHANNELS 3 Zrotation Yrotation Xrotation 
							End Site
							{
								OFFSET 4.106464 0.000000 0.000000
							}
						}
					}
				}
			}
			JOINT rCollar
			{
				OFFSET -3.558935 6.707223 -0.821293
				CHANNELS 3 Yrotation Zrotation Xrotation 
				JOINT rShldr
				{
					OFFSET -3.148289 0.000000 0.000000
					CHANNELS 3 Zrotation Yrotation Xrotation 
					JOINT rForeArm
					{
						OFFSET -10.266159 0.000000 0.000000
						CHANNELS 3 Yrotation Zrotation Xrotation 
						JOINT rHand
						{
							OFFSET -8.349810 0.000000 0.000000
							CHANNELS 3 Zrotation Yrotation Xrotation 
							End Site
							{
								OFFSET -4.106464 0.000000 0.000000
							}
						}
					}
				}
			}
		}
	}
	JOINT lThigh
	{
		OFFSET 5.338403 -1.642589 1.368821
		CHANNELS 3 Xrotation Zrotation Yrotation 
		JOINT lShin
		{
			OFFSET -2.053232 -20.121670 0.000000
			CHANNELS 3 Xrotation Zrotation Yrotation 
			JOINT lFoot
			{
				OFFSET 0.000000 -19.300380 -1.231939
				CHANNELS 3 Xrotation Yrotation Zrotation 
				End Site
				{
					OFFSET 0.000000 -2.463878 4.653993
				}
			}
		}
	}
	JOINT rThigh
	{
		OFFSET -5.338403 -1.642589 1.368821
		CHANNELS 3 Xrotation Zrotation Yrotation 
		JOINT rShin
		{
			OFFSET 2.053232 -20.121670 0.000000
			CHANNELS 3 Xrotation Zrotation Yrotation 
			JOINT rFoot
			{
				OFFSET 0.000000 -19.300380 -1.231939
				CHANNELS 3 Xrotation Yrotation Zrotation 
				End Site
				{
					OFFSET 0.000000 -2.463878 4.653993
				}
			}
		}
	}
}
MOTION
Frames: 8
Frame Time: 0.033264
19.995884 40.461693 28.397194 104.995956 0.000001 -0.000001 7.545500 -1.364828 -1.164153 5.832994 0.090419 -3.311764 -7.767077 0.000000 0.000000 -14.578218 0.000000 0.000000 16.422962 -50.416817 56.337238 -35.721535 -7.787054 59.206417 -45.962509 16.845697 8.952972 36.956997 6.970855 -5.572242 -20.342186 48.352123 60.048428 35.493046 6.841548 59.260414 39.258717 -19.029797 8.078544 -35.146481 -8.193555 -2.915817 -104.056717 7.119312 0.112204 1.524677 -5.698232 0.286542 -2.108598 5.203295 2.821849 -103.340271 -6.621933 1.620654 -0.275221 4.747693 -0.433176 -1.126288 -7.037816 -2.443312 
19.995884 40.461693 28.421074 104.995956 0.000001 -0.000001 7.745564 -1.364879 -1.164128 6.587226 0.090437 -3.311694 -8.556312 0.000000 0.000000 -15.284044 0.000000 0.000000 16.011198 -50.821888 55.578758 -35.573700 -7.879399 59.158066 -45.134045 16.710455 8.713335 37.315746 6.377366 -5.697538 -20.010353 48.985146 59.321518 35.301128 6.929236 59.203629 38.216656 -18.759527 7.742354 -35.587822 -7.523012 -3.172939 -104.056717 7.119312 0.112204 1.524677 -5.698232 0.286542 -2.108598 5.203295 2.821849 -103.340271 -6.621933 1.620654 -0.275221 4.747693 -0.433176 -1.126288 -7.037816 -2.443312 
19.995884 40.461693 28.444954 104.995956 0.000001 -0.000001 7.945626 -1.364930 -1.164102 7.341326 0.090453 -3.311623 -9.345694 0.000000 0.000000 -15.989977 0.000000 0.000000 15.587356 -51.223377 54.809116 -35.425755 -7.971620 59.109455 -44.306931 16.571939 8.475980 37.675346 5.784761 -5.826409 -19.661957 49.615166 58.579739 35.109104 7.016736 59.146557 37.178291 -18.483618 7.412049 -36.031441 -6.854610 -3.434816 -104.056717 7.119312 0.112204 1.524677 -5.698232 0.286542 -2.108598 5.203295 2.821849 -103.340271 -6.621933 1.620654 -0.275221 4.747693 -0.433176 -1.126288 -7.037816 -2.443312 
19.995884 40.461693 28.468836 104.995956 0.000001 -0.000001 8.145685 -1.364981 -1.164077 8.095233 0.090468 -3.311553 -10.135152 0.000000 0.000000 -16.695967 0.000000 0.000000 15.151238 -51.621155 54.028118 -35.277695 -8.063715 59.060604 -43.481255 16.430199 8.240973 38.035854 5.193110 -5.958854 -19.296368 50.241962 57.822475 34.916950 7.104038 59.089169 36.143787 -18.202229 7.087747 -36.477394 -6.188470 -3.701452 -104.056717 7.119312 0.112204 1.524677 -5.698232 0.286542 -2.108598 5.203295 2.821849 -103.340271 -6.621933 1.620654 -0.275221 4.747693 -0.433176 -1.126288 -7.037816 -2.443312 
19.995884 40.461693 28.492716 104.995956 0.000001 -0.000001 8.345737 -1.365032 -1.164052 8.848875 0.090483 -3.311481 -10.924607 0.000000 0.000000 -17.401955 0.000000 0.000000 14.702631 -52.015072 53.235558 -35.129536 -8.155682 59.011505 -42.657135 16.285288 8.008384 38.397293 4.602485 -6.094870 -18.912981 50.865314 57.049118 34.724670 7.191148 59.031460 35.113293 -17.915514 6.769559 -36.925713 -5.524718 -3.972847 -104.056717 7.119312 0.112204 1.524677 -5.698232 0.286542 -2.108598 5.203295 2.821849 -103.340271 -6.621933 1.620654 -0.275221 4.747693 -0.433176 -1.126288 -7.037816 -2.443312 
19.995884 40.461693 28.516596 104.995956 0.000001 -0.000001 8.545785 -1.365084 -1.164027 9.602195 0.090496 -3.311410 -11.713991 0.000000 0.000000 -18.107887 0.000000 0.000000 14.241304 -52.404938 52.431179 -34.981262 -8.247521 58.962154 -41.834652 16.137259 7.778275 38.759724 4.012955 -6.234458 -18.511114 51.484947 56.258976 34.532284 7.278067 58.973480 34.086960 -17.623650 6.457592 -37.376453 -4.863479 -4.249002 -104.056717 7.119312 0.112204 1.524677 -5.698232 0.286542 -2.108598 5.203295 2.821849 -103.340271 -6.621933 1.620654 -0.275221 4.747693 -0.433176 -1.126288 -7.037816 -2.443312 
19.995884 40.461693 28.540476 104.995956 0.000001 -0.000001 8.745824 -1.365135 -1.164002 10.355120 0.090509 -3.311338 -12.503223 0.000000 0.000000 -18.813717 0.000000 0.000000 13.767051 -52.790611 51.614796 -34.832867 -8.339231 58.912533 -41.013893 15.986164 7.550707 39.123165 3.424588 -6.377618 -18.090096 52.100636 55.451382 34.339779 7.364783 58.915184 33.064953 -17.326803 6.151947 -37.829674 -4.204872 -4.529923 -104.056717 7.119312 0.112204 1.524677 -5.698232 0.286542 -2.108598 5.203295 2.821849 -103.340271 -6.621933 1.620654 -0.275221 4.747693 -0.433176 -1.126288 -7.037816 -2.443312 
19.995884 40.461693 28.564356 104.995956 0.000001 -0.000001 8.945856 -1.365187 -1.163977 11.107592 0.090520 -3.311267 -13.292231 0.000000 0.000000 -19.519381 0.000000 0.000000 13.279679 -53.171963 50.786228 -34.684372 -8.430810 58.862686 -40.194942 15.832059 7.325736 39.487686 2.837461 -6.524352 -17.649242 52.712124 54.625660 34.147148 7.451303 58.856583 32.047386 -17.025156 5.852709 -38.285412 -3.549028 -4.815609 -104.056717 7.119312 0.112204 1.524677 -5.698232 0.286542 -2.108598 5.203295 2.821849 -103.340271 -6.621933 1.620654 -0.275221 4.747693 -0.433176 -1.126288 -7.037816 -2.443312 
